<svg xmlns="http://www.w3.org/2000/svg" xmlns:xlink="http://www.w3.org/1999/xlink" width="412" zoomAndPan="magnify" viewBox="0 0 309 98.999996" height="132" preserveAspectRatio="xMidYMid meet" version="1.0"><defs><filter x="0%" y="0%" width="100%" height="100%" id="f6549e4f39"><feColorMatrix values="0 0 0 0 1 0 0 0 0 1 0 0 0 0 1 0 0 0 1 0" color-interpolation-filters="sRGB"/></filter><g/><clipPath id="54df3664e8"><path d="M 0 2.363281 L 89.265625 2.363281 L 89.265625 91.632812 L 0 91.632812 Z M 0 2.363281 " clip-rule="nonzero"/></clipPath><clipPath id="5ca9ea10d7"><path d="M 57.621094 2.363281 L 31.644531 2.363281 C 29.574219 2.363281 27.894531 4.042969 27.894531 6.113281 L 27.894531 26.511719 C 27.894531 28.582031 26.214844 30.261719 24.144531 30.261719 L 3.75 30.261719 C 1.679688 30.261719 0 31.941406 0 34.011719 L 0 59.984375 C 0 62.054688 1.679688 63.734375 3.75 63.734375 L 24.144531 63.734375 C 26.214844 63.734375 27.894531 65.414062 27.894531 67.484375 L 27.894531 87.882812 C 27.894531 89.953125 29.574219 91.632812 31.644531 91.632812 L 57.621094 91.632812 C 59.691406 91.632812 61.371094 89.953125 61.371094 87.882812 L 61.371094 67.484375 C 61.371094 65.414062 63.050781 63.734375 65.121094 63.734375 L 85.515625 63.734375 C 87.585938 63.734375 89.265625 62.054688 89.265625 59.984375 L 89.265625 34.011719 C 89.265625 31.941406 87.585938 30.261719 85.515625 30.261719 L 65.121094 30.261719 C 63.050781 30.261719 61.371094 28.582031 61.371094 26.511719 L 61.371094 6.113281 C 61.371094 4.042969 59.691406 2.363281 57.621094 2.363281 Z M 57.621094 2.363281 " clip-rule="nonzero"/></clipPath><clipPath id="3f2992cb6d"><path d="M 67.191406 7.597656 L 82.996094 7.597656 L 82.996094 23.402344 L 67.191406 23.402344 Z M 67.191406 7.597656 " clip-rule="nonzero"/></clipPath><clipPath id="c3c2b58bb4"><path d="M 76.558594 7.597656 L 73.628906 7.597656 C 72.800781 7.597656 72.128906 8.269531 72.128906 9.097656 L 72.128906 11.035156 C 72.128906 11.863281 71.457031 12.535156 70.628906 12.535156 L 68.691406 12.535156 C 67.863281 12.535156 67.191406 13.207031 67.191406 14.035156 L 67.191406 16.964844 C 67.191406 17.792969 67.863281 18.464844 68.691406 18.464844 L 70.628906 18.464844 C 71.457031 18.464844 72.128906 19.136719 72.128906 19.964844 L 72.128906 21.902344 C 72.128906 22.730469 72.800781 23.402344 73.628906 23.402344 L 76.558594 23.402344 C 77.386719 23.402344 78.058594 22.730469 78.058594 21.902344 L 78.058594 19.964844 C 78.058594 19.136719 78.730469 18.464844 79.558594 18.464844 L 81.496094 18.464844 C 82.324219 18.464844 82.996094 17.792969 82.996094 16.964844 L 82.996094 14.035156 C 82.996094 13.207031 82.324219 12.535156 81.496094 12.535156 L 79.558594 12.535156 C 78.730469 12.535156 78.058594 11.863281 78.058594 11.035156 L 78.058594 9.097656 C 78.058594 8.269531 77.386719 7.597656 76.558594 7.597656 Z M 76.558594 7.597656 " clip-rule="nonzero"/></clipPath><clipPath id="ea7e7f48a7"><path d="M 12 28 L 48 28 L 48 79 L 12 79 Z M 12 28 " clip-rule="nonzero"/></clipPath><clipPath id="8940ee260c"><path d="M 28.179688 23.402344 L 51.417969 31.914062 L 33.105469 81.917969 L 9.867188 73.40625 Z M 28.179688 23.402344 " clip-rule="nonzero"/></clipPath><clipPath id="282cb33ae3"><path d="M 28.179688 23.402344 L 51.417969 31.914062 L 33.105469 81.917969 L 9.867188 73.40625 Z M 28.179688 23.402344 " clip-rule="nonzero"/></clipPath><clipPath id="cb5767a278"><path d="M 41 47 L 77 47 L 77 96 L 41 96 Z M 41 47 " clip-rule="nonzero"/></clipPath><clipPath id="9043d728fd"><path d="M 37.617188 51.910156 L 59.746094 42.617188 L 79.203125 88.945312 L 57.078125 98.238281 Z M 37.617188 51.910156 " clip-rule="nonzero"/></clipPath><clipPath id="0d4e9b8c32"><path d="M 59.53125 42.707031 L 37.402344 52 L 56.859375 98.328125 L 78.988281 89.035156 Z M 59.53125 42.707031 " clip-rule="nonzero"/></clipPath><mask id="73887481b2"><g filter="url(#f6549e4f39)"><rect x="-30.9" width="370.8" fill="#000000" y="-9.9" height="118.799995" fill-opacity="0.88"/></g></mask><clipPath id="8ac961e87d"><rect x="0" width="163" y="0" height="23"/></clipPath></defs><g clip-path="url(#54df3664e8)"><g clip-path="url(#5ca9ea10d7)"><path fill="#ad2121" d="M 0 2.363281 L 89.265625 2.363281 L 89.265625 91.632812 L 0 91.632812 Z M 0 2.363281 " fill-opacity="1" fill-rule="nonzero"/></g></g><g clip-path="url(#3f2992cb6d)"><g clip-path="url(#c3c2b58bb4)"><path fill="#ad2121" d="M 67.191406 7.597656 L 82.996094 7.597656 L 82.996094 23.402344 L 67.191406 23.402344 Z M 67.191406 7.597656 " fill-opacity="1" fill-rule="nonzero"/></g></g><g clip-path="url(#ea7e7f48a7)"><g clip-path="url(#8940ee260c)"><g clip-path="url(#282cb33ae3)"><path fill="#ffffff" d="M 12.277344 73.714844 C 14.757812 70.472656 16.445312 66.726562 18.714844 63.347656 C 20.660156 60.042969 22.71875 56.730469 23.914062 53.070312 C 24.636719 49.839844 23.90625 46.433594 25.019531 43.269531 C 25.273438 41.421875 26.117188 39.511719 25.628906 37.65625 C 24.453125 36.59375 24.25 34.210938 26.414062 34.953125 C 28.347656 35.128906 28.585938 38.632812 29.324219 38.757812 C 30.519531 36.203125 31.660156 33.53125 33.773438 31.582031 C 35 30.46875 35.96875 28.074219 37.910156 28.410156 C 39.988281 29.535156 37.617188 31.75 36.875 33.039062 C 36.1875 34.34375 33.980469 36.222656 34.5 37.34375 C 36.5625 34.832031 39.097656 32.6875 41.691406 30.714844 C 43.625 29.066406 45.355469 32.179688 43.222656 33.28125 C 41.160156 35.402344 38.839844 37.3125 37.257812 39.84375 C 36.28125 40.761719 36.929688 41.394531 37.726562 40.222656 C 39.527344 38.203125 41.65625 36.527344 43.550781 34.601562 C 44.898438 32.417969 47.410156 35.265625 45.371094 36.609375 C 43.808594 38.421875 42.007812 40.011719 40.441406 41.808594 C 39.910156 42.5625 37.613281 45.511719 39.886719 44.308594 C 42.019531 43.101562 43.875 41.5 45.703125 39.886719 C 47.996094 38.53125 47.933594 41.902344 46.28125 42.703125 C 44.453125 44.769531 42.390625 46.613281 40.324219 48.433594 C 38.128906 51.464844 36.648438 55.082031 33.707031 57.53125 C 31.984375 58.546875 31.316406 60.414062 30.699219 62.214844 C 28.71875 67.617188 26.84375 73.058594 24.921875 78.484375 C 20.710938 76.890625 16.414062 75.492188 12.277344 73.714844 Z M 12.277344 73.714844 " fill-opacity="1" fill-rule="nonzero"/></g></g></g><g clip-path="url(#cb5767a278)"><g clip-path="url(#9043d728fd)"><g clip-path="url(#0d4e9b8c32)"><path fill="#ffffff" d="M 76.894531 89.902344 C 74.390625 86.925781 72.617188 83.433594 70.308594 80.316406 C 68.308594 77.257812 66.203125 74.195312 64.902344 70.765625 C 64.070312 67.71875 64.617188 64.445312 63.414062 61.480469 C 63.089844 59.734375 62.203125 57.953125 62.585938 56.164062 C 63.65625 55.101562 63.746094 52.824219 61.71875 53.625 C 59.886719 53.878906 59.8125 57.226562 59.117188 57.378906 C 57.867188 54.996094 56.660156 52.503906 54.5625 50.742188 C 53.347656 49.734375 52.316406 47.5 50.480469 47.902344 C 48.554688 49.070312 50.910156 51.070312 51.671875 52.265625 C 52.386719 53.480469 54.574219 55.167969 54.125 56.257812 C 52.050781 53.957031 49.542969 52.03125 46.984375 50.269531 C 45.074219 48.785156 43.5625 51.828125 45.640625 52.777344 C 47.699219 54.707031 49.992188 56.425781 51.609375 58.761719 C 52.582031 59.589844 51.992188 60.222656 51.179688 59.144531 C 49.378906 57.300781 47.277344 55.800781 45.390625 54.050781 C 44.007812 52.03125 41.742188 54.855469 43.742188 56.042969 C 45.3125 57.699219 47.09375 59.132812 48.667969 60.773438 C 49.207031 61.46875 51.523438 64.175781 49.308594 63.128906 C 47.222656 62.078125 45.386719 60.632812 43.574219 59.175781 C 41.332031 57.988281 41.539062 61.195312 43.148438 61.882812 C 44.980469 63.773438 47.027344 65.4375 49.070312 67.074219 C 51.296875 69.867188 52.867188 73.242188 55.777344 75.445312 C 57.460938 76.335938 58.179688 78.082031 58.847656 79.769531 C 60.972656 84.824219 63 89.921875 65.066406 95.003906 C 69.007812 93.300781 73.039062 91.777344 76.894531 89.902344 Z M 76.894531 89.902344 " fill-opacity="1" fill-rule="nonzero"/></g></g></g><g fill="#000000" fill-opacity="1"><g transform="translate(96.474403, 57.881533)"><g><path d="M 13.71875 0 L 7.703125 -19.609375 L 7.546875 -19.609375 C 7.578125 -19.140625 7.613281 -18.429688 7.65625 -17.484375 C 7.707031 -16.546875 7.753906 -15.546875 7.796875 -14.484375 C 7.847656 -13.429688 7.875 -12.476562 7.875 -11.625 L 7.875 0 L 3.140625 0 L 3.140625 -24.984375 L 10.359375 -24.984375 L 16.265625 -5.875 L 16.375 -5.875 L 22.640625 -24.984375 L 29.859375 -24.984375 L 29.859375 0 L 24.921875 0 L 24.921875 -11.828125 C 24.921875 -12.609375 24.929688 -13.507812 24.953125 -14.53125 C 24.984375 -15.5625 25.019531 -16.539062 25.0625 -17.46875 C 25.113281 -18.40625 25.148438 -19.101562 25.171875 -19.5625 L 25.015625 -19.5625 L 18.578125 0 Z M 13.71875 0 "/></g></g></g><g fill="#000000" fill-opacity="1"><g transform="translate(130.027531, 57.881533)"><g><path d="M 10.609375 -19.46875 C 12.378906 -19.46875 13.898438 -19.128906 15.171875 -18.453125 C 16.453125 -17.773438 17.4375 -16.789062 18.125 -15.5 C 18.820312 -14.207031 19.171875 -12.632812 19.171875 -10.78125 L 19.171875 -8.25 L 6.859375 -8.25 C 6.910156 -6.78125 7.347656 -5.625 8.171875 -4.78125 C 9.003906 -3.945312 10.15625 -3.53125 11.625 -3.53125 C 12.84375 -3.53125 13.957031 -3.65625 14.96875 -3.90625 C 15.976562 -4.164062 17.019531 -4.546875 18.09375 -5.046875 L 18.09375 -1.015625 C 17.15625 -0.546875 16.171875 -0.203125 15.140625 0.015625 C 14.109375 0.234375 12.851562 0.34375 11.375 0.34375 C 9.46875 0.34375 7.773438 -0.0078125 6.296875 -0.71875 C 4.816406 -1.425781 3.660156 -2.503906 2.828125 -3.953125 C 1.992188 -5.398438 1.578125 -7.222656 1.578125 -9.421875 C 1.578125 -11.648438 1.953125 -13.507812 2.703125 -15 C 3.460938 -16.488281 4.519531 -17.601562 5.875 -18.34375 C 7.226562 -19.09375 8.804688 -19.46875 10.609375 -19.46875 Z M 10.640625 -15.75 C 9.628906 -15.75 8.789062 -15.425781 8.125 -14.78125 C 7.457031 -14.132812 7.070312 -13.113281 6.96875 -11.71875 L 14.28125 -11.71875 C 14.269531 -12.5 14.128906 -13.191406 13.859375 -13.796875 C 13.597656 -14.398438 13.203125 -14.875 12.671875 -15.21875 C 12.140625 -15.570312 11.460938 -15.75 10.640625 -15.75 Z M 10.640625 -15.75 "/></g></g></g><g fill="#000000" fill-opacity="1"><g transform="translate(151.261633, 57.881533)"><g><path d="M 8.78125 0.34375 C 6.65625 0.34375 4.921875 -0.488281 3.578125 -2.15625 C 2.242188 -3.832031 1.578125 -6.285156 1.578125 -9.515625 C 1.578125 -12.785156 2.253906 -15.257812 3.609375 -16.9375 C 4.960938 -18.625 6.734375 -19.46875 8.921875 -19.46875 C 9.828125 -19.46875 10.628906 -19.34375 11.328125 -19.09375 C 12.023438 -18.84375 12.625 -18.503906 13.125 -18.078125 C 13.632812 -17.660156 14.066406 -17.1875 14.421875 -16.65625 L 14.59375 -16.65625 C 14.53125 -17.019531 14.445312 -17.554688 14.34375 -18.265625 C 14.25 -18.984375 14.203125 -19.71875 14.203125 -20.46875 L 14.203125 -26.59375 L 19.4375 -26.59375 L 19.4375 0 L 15.4375 0 L 14.421875 -2.484375 L 14.203125 -2.484375 C 13.867188 -1.953125 13.453125 -1.472656 12.953125 -1.046875 C 12.460938 -0.617188 11.875 -0.28125 11.1875 -0.03125 C 10.507812 0.21875 9.707031 0.34375 8.78125 0.34375 Z M 10.609375 -3.8125 C 12.035156 -3.8125 13.039062 -4.234375 13.625 -5.078125 C 14.21875 -5.929688 14.53125 -7.210938 14.5625 -8.921875 L 14.5625 -9.484375 C 14.5625 -11.335938 14.273438 -12.757812 13.703125 -13.75 C 13.140625 -14.738281 12.082031 -15.234375 10.53125 -15.234375 C 9.375 -15.234375 8.472656 -14.734375 7.828125 -13.734375 C 7.179688 -12.742188 6.859375 -11.316406 6.859375 -9.453125 C 6.859375 -7.578125 7.179688 -6.164062 7.828125 -5.21875 C 8.484375 -4.28125 9.410156 -3.8125 10.609375 -3.8125 Z M 10.609375 -3.8125 "/></g></g></g><g fill="#000000" fill-opacity="1"><g transform="translate(173.965135, 57.881533)"><g><path d="M 7.953125 -19.109375 L 7.953125 0 L 2.734375 0 L 2.734375 -19.109375 Z M 5.34375 -26.59375 C 6.125 -26.59375 6.789062 -26.410156 7.34375 -26.046875 C 7.90625 -25.691406 8.1875 -25.023438 8.1875 -24.046875 C 8.1875 -23.078125 7.90625 -22.40625 7.34375 -22.03125 C 6.789062 -21.664062 6.125 -21.484375 5.34375 -21.484375 C 4.5625 -21.484375 3.894531 -21.664062 3.34375 -22.03125 C 2.789062 -22.40625 2.515625 -23.078125 2.515625 -24.046875 C 2.515625 -25.023438 2.789062 -25.691406 3.34375 -26.046875 C 3.894531 -26.410156 4.5625 -26.59375 5.34375 -26.59375 Z M 5.34375 -26.59375 "/></g></g></g><g fill="#000000" fill-opacity="1"><g transform="translate(185.203913, 57.881533)"><g><path d="M 10.5 0.34375 C 8.601562 0.34375 6.988281 0 5.65625 -0.6875 C 4.320312 -1.375 3.304688 -2.441406 2.609375 -3.890625 C 1.921875 -5.335938 1.578125 -7.191406 1.578125 -9.453125 C 1.578125 -11.785156 1.972656 -13.6875 2.765625 -15.15625 C 3.554688 -16.632812 4.65625 -17.722656 6.0625 -18.421875 C 7.46875 -19.117188 9.097656 -19.46875 10.953125 -19.46875 C 12.273438 -19.46875 13.414062 -19.335938 14.375 -19.078125 C 15.34375 -18.828125 16.1875 -18.523438 16.90625 -18.171875 L 15.359375 -14.140625 C 14.546875 -14.460938 13.785156 -14.726562 13.078125 -14.9375 C 12.367188 -15.15625 11.660156 -15.265625 10.953125 -15.265625 C 10.046875 -15.265625 9.289062 -15.050781 8.6875 -14.625 C 8.082031 -14.195312 7.628906 -13.554688 7.328125 -12.703125 C 7.035156 -11.847656 6.890625 -10.773438 6.890625 -9.484375 C 6.890625 -8.222656 7.046875 -7.175781 7.359375 -6.34375 C 7.679688 -5.507812 8.144531 -4.890625 8.75 -4.484375 C 9.351562 -4.078125 10.085938 -3.875 10.953125 -3.875 C 12.035156 -3.875 13 -4.019531 13.84375 -4.3125 C 14.6875 -4.601562 15.503906 -5.007812 16.296875 -5.53125 L 16.296875 -1.078125 C 15.503906 -0.578125 14.671875 -0.21875 13.796875 0 C 12.929688 0.226562 11.832031 0.34375 10.5 0.34375 Z M 10.5 0.34375 "/></g></g></g><g fill="#000000" fill-opacity="1"><g transform="translate(203.755511, 57.881533)"><g><path d="M 10.5625 -19.5 C 13.125 -19.5 15.085938 -18.941406 16.453125 -17.828125 C 17.828125 -16.710938 18.515625 -15.015625 18.515625 -12.734375 L 18.515625 0 L 14.875 0 L 13.859375 -2.59375 L 13.71875 -2.59375 C 13.175781 -1.914062 12.617188 -1.359375 12.046875 -0.921875 C 11.472656 -0.492188 10.816406 -0.175781 10.078125 0.03125 C 9.335938 0.238281 8.441406 0.34375 7.390625 0.34375 C 6.253906 0.34375 5.238281 0.128906 4.34375 -0.296875 C 3.457031 -0.734375 2.753906 -1.398438 2.234375 -2.296875 C 1.722656 -3.191406 1.46875 -4.328125 1.46875 -5.703125 C 1.46875 -7.734375 2.179688 -9.226562 3.609375 -10.1875 C 5.035156 -11.15625 7.171875 -11.691406 10.015625 -11.796875 L 13.328125 -11.890625 L 13.328125 -12.734375 C 13.328125 -13.734375 13.066406 -14.46875 12.546875 -14.9375 C 12.023438 -15.40625 11.296875 -15.640625 10.359375 -15.640625 C 9.429688 -15.640625 8.523438 -15.503906 7.640625 -15.234375 C 6.753906 -14.972656 5.863281 -14.644531 4.96875 -14.25 L 3.25 -17.78125 C 4.257812 -18.3125 5.394531 -18.726562 6.65625 -19.03125 C 7.914062 -19.34375 9.21875 -19.5 10.5625 -19.5 Z M 13.328125 -8.859375 L 11.3125 -8.78125 C 9.625 -8.738281 8.453125 -8.4375 7.796875 -7.875 C 7.140625 -7.320312 6.8125 -6.585938 6.8125 -5.671875 C 6.8125 -4.878906 7.046875 -4.3125 7.515625 -3.96875 C 7.984375 -3.632812 8.59375 -3.46875 9.34375 -3.46875 C 10.457031 -3.46875 11.398438 -3.796875 12.171875 -4.453125 C 12.941406 -5.117188 13.328125 -6.0625 13.328125 -7.28125 Z M 13.328125 -8.859375 "/></g></g></g><g fill="#000000" fill-opacity="1"><g transform="translate(225.450933, 57.881533)"><g><path d="M 13.40625 -19.46875 C 13.664062 -19.46875 13.96875 -19.453125 14.3125 -19.421875 C 14.65625 -19.390625 14.9375 -19.351562 15.15625 -19.3125 L 14.765625 -14.421875 C 14.597656 -14.484375 14.351562 -14.523438 14.03125 -14.546875 C 13.71875 -14.578125 13.453125 -14.59375 13.234375 -14.59375 C 12.554688 -14.59375 11.898438 -14.503906 11.265625 -14.328125 C 10.640625 -14.160156 10.070312 -13.882812 9.5625 -13.5 C 9.0625 -13.125 8.664062 -12.625 8.375 -12 C 8.09375 -11.382812 7.953125 -10.625 7.953125 -9.71875 L 7.953125 0 L 2.734375 0 L 2.734375 -19.109375 L 6.6875 -19.109375 L 7.453125 -15.890625 L 7.703125 -15.890625 C 8.078125 -16.546875 8.546875 -17.140625 9.109375 -17.671875 C 9.679688 -18.210938 10.328125 -18.644531 11.046875 -18.96875 C 11.773438 -19.300781 12.5625 -19.46875 13.40625 -19.46875 Z M 13.40625 -19.46875 "/></g></g></g><g fill="#000000" fill-opacity="1"><g transform="translate(241.900944, 57.881533)"><g><path d="M 10.609375 -19.46875 C 12.378906 -19.46875 13.898438 -19.128906 15.171875 -18.453125 C 16.453125 -17.773438 17.4375 -16.789062 18.125 -15.5 C 18.820312 -14.207031 19.171875 -12.632812 19.171875 -10.78125 L 19.171875 -8.25 L 6.859375 -8.25 C 6.910156 -6.78125 7.347656 -5.625 8.171875 -4.78125 C 9.003906 -3.945312 10.15625 -3.53125 11.625 -3.53125 C 12.84375 -3.53125 13.957031 -3.65625 14.96875 -3.90625 C 15.976562 -4.164062 17.019531 -4.546875 18.09375 -5.046875 L 18.09375 -1.015625 C 17.15625 -0.546875 16.171875 -0.203125 15.140625 0.015625 C 14.109375 0.234375 12.851562 0.34375 11.375 0.34375 C 9.46875 0.34375 7.773438 -0.0078125 6.296875 -0.71875 C 4.816406 -1.425781 3.660156 -2.503906 2.828125 -3.953125 C 1.992188 -5.398438 1.578125 -7.222656 1.578125 -9.421875 C 1.578125 -11.648438 1.953125 -13.507812 2.703125 -15 C 3.460938 -16.488281 4.519531 -17.601562 5.875 -18.34375 C 7.226562 -19.09375 8.804688 -19.46875 10.609375 -19.46875 Z M 10.640625 -15.75 C 9.628906 -15.75 8.789062 -15.425781 8.125 -14.78125 C 7.457031 -14.132812 7.070312 -13.113281 6.96875 -11.71875 L 14.28125 -11.71875 C 14.269531 -12.5 14.128906 -13.191406 13.859375 -13.796875 C 13.597656 -14.398438 13.203125 -14.875 12.671875 -15.21875 C 12.140625 -15.570312 11.460938 -15.75 10.640625 -15.75 Z M 10.640625 -15.75 "/></g></g></g><g fill="#ad2121" fill-opacity="1"><g transform="translate(263.24764, 59.637397)"><g><path d="M 30.59375 0 L 22.671875 0 L 15.046875 -12.390625 L 7.4375 0 L 0 0 L 10.859375 -16.890625 L 0.6875 -32.75 L 8.359375 -32.75 L 15.40625 -20.96875 L 22.328125 -32.75 L 29.8125 -32.75 L 19.53125 -16.515625 Z M 30.59375 0 "/></g></g></g><g mask="url(#73887481b2)"><g transform="matrix(1, 0, 0, 1, 98, 58)"><g clip-path="url(#8ac961e87d)"><g fill="#545454" fill-opacity="1"><g transform="translate(0.167095, 16.924242)"><g><path d="M 3.5625 0 L 1.484375 0 L 1.484375 -11.421875 L 4.4375 -11.421875 L 7.328125 -3.03125 L 7.5 -3.03125 L 10.375 -11.421875 L 13.25 -11.421875 L 13.25 0 L 11.109375 0 L 11.109375 -7.546875 L 10.921875 -7.578125 L 8.28125 0 L 6.390625 0 L 3.75 -7.578125 L 3.5625 -7.546875 Z M 3.5625 0 "/></g></g></g><g fill="#545454" fill-opacity="1"><g transform="translate(15.353683, 16.924242)"><g><path d="M 3.359375 0.171875 C 2.804688 0.171875 2.328125 0.0664062 1.921875 -0.140625 C 1.515625 -0.347656 1.203125 -0.644531 0.984375 -1.03125 C 0.765625 -1.425781 0.65625 -1.898438 0.65625 -2.453125 C 0.65625 -2.960938 0.765625 -3.390625 0.984375 -3.734375 C 1.203125 -4.085938 1.539062 -4.375 2 -4.59375 C 2.457031 -4.8125 3.054688 -4.984375 3.796875 -5.109375 C 4.316406 -5.191406 4.707031 -5.28125 4.96875 -5.375 C 5.238281 -5.476562 5.421875 -5.59375 5.515625 -5.71875 C 5.609375 -5.84375 5.65625 -6 5.65625 -6.1875 C 5.65625 -6.46875 5.554688 -6.679688 5.359375 -6.828125 C 5.171875 -6.972656 4.851562 -7.046875 4.40625 -7.046875 C 3.925781 -7.046875 3.46875 -6.9375 3.03125 -6.71875 C 2.601562 -6.507812 2.234375 -6.226562 1.921875 -5.875 L 1.765625 -5.875 L 0.859375 -7.25 C 1.296875 -7.726562 1.828125 -8.101562 2.453125 -8.375 C 3.085938 -8.644531 3.773438 -8.78125 4.515625 -8.78125 C 5.660156 -8.78125 6.488281 -8.535156 7 -8.046875 C 7.507812 -7.566406 7.765625 -6.882812 7.765625 -6 L 7.765625 -2.25 C 7.765625 -1.863281 7.929688 -1.671875 8.265625 -1.671875 C 8.398438 -1.671875 8.53125 -1.695312 8.65625 -1.75 L 8.765625 -1.71875 L 8.921875 -0.203125 C 8.796875 -0.128906 8.625 -0.0664062 8.40625 -0.015625 C 8.195312 0.0351562 7.96875 0.0625 7.71875 0.0625 C 7.195312 0.0625 6.789062 -0.0351562 6.5 -0.234375 C 6.21875 -0.429688 6.015625 -0.742188 5.890625 -1.171875 L 5.71875 -1.1875 C 5.300781 -0.28125 4.515625 0.171875 3.359375 0.171875 Z M 4.046875 -1.453125 C 4.546875 -1.453125 4.945312 -1.617188 5.25 -1.953125 C 5.550781 -2.296875 5.703125 -2.765625 5.703125 -3.359375 L 5.703125 -4.234375 L 5.546875 -4.265625 C 5.421875 -4.160156 5.25 -4.070312 5.03125 -4 C 4.820312 -3.9375 4.519531 -3.867188 4.125 -3.796875 C 3.65625 -3.722656 3.316406 -3.585938 3.109375 -3.390625 C 2.910156 -3.203125 2.8125 -2.9375 2.8125 -2.59375 C 2.8125 -2.21875 2.921875 -1.929688 3.140625 -1.734375 C 3.359375 -1.546875 3.660156 -1.453125 4.046875 -1.453125 Z M 4.046875 -1.453125 "/></g></g></g><g fill="#545454" fill-opacity="1"><g transform="translate(24.885402, 16.924242)"><g><path d="M 1.25 0 L 1.25 -8.625 L 3.328125 -8.625 L 3.328125 -7.359375 L 3.484375 -7.3125 C 4.023438 -8.289062 4.894531 -8.78125 6.09375 -8.78125 C 7.09375 -8.78125 7.820312 -8.507812 8.28125 -7.96875 C 8.75 -7.425781 8.984375 -6.640625 8.984375 -5.609375 L 8.984375 0 L 6.828125 0 L 6.828125 -5.34375 C 6.828125 -5.914062 6.710938 -6.328125 6.484375 -6.578125 C 6.253906 -6.828125 5.882812 -6.953125 5.375 -6.953125 C 4.757812 -6.953125 4.273438 -6.75 3.921875 -6.34375 C 3.578125 -5.945312 3.40625 -5.320312 3.40625 -4.46875 L 3.40625 0 Z M 1.25 0 "/></g></g></g><g fill="#545454" fill-opacity="1"><g transform="translate(35.42468, 16.924242)"><g><path d="M 3.359375 0.171875 C 2.804688 0.171875 2.328125 0.0664062 1.921875 -0.140625 C 1.515625 -0.347656 1.203125 -0.644531 0.984375 -1.03125 C 0.765625 -1.425781 0.65625 -1.898438 0.65625 -2.453125 C 0.65625 -2.960938 0.765625 -3.390625 0.984375 -3.734375 C 1.203125 -4.085938 1.539062 -4.375 2 -4.59375 C 2.457031 -4.8125 3.054688 -4.984375 3.796875 -5.109375 C 4.316406 -5.191406 4.707031 -5.28125 4.96875 -5.375 C 5.238281 -5.476562 5.421875 -5.59375 5.515625 -5.71875 C 5.609375 -5.84375 5.65625 -6 5.65625 -6.1875 C 5.65625 -6.46875 5.554688 -6.679688 5.359375 -6.828125 C 5.171875 -6.972656 4.851562 -7.046875 4.40625 -7.046875 C 3.925781 -7.046875 3.46875 -6.9375 3.03125 -6.71875 C 2.601562 -6.507812 2.234375 -6.226562 1.921875 -5.875 L 1.765625 -5.875 L 0.859375 -7.25 C 1.296875 -7.726562 1.828125 -8.101562 2.453125 -8.375 C 3.085938 -8.644531 3.773438 -8.78125 4.515625 -8.78125 C 5.660156 -8.78125 6.488281 -8.535156 7 -8.046875 C 7.507812 -7.566406 7.765625 -6.882812 7.765625 -6 L 7.765625 -2.25 C 7.765625 -1.863281 7.929688 -1.671875 8.265625 -1.671875 C 8.398438 -1.671875 8.53125 -1.695312 8.65625 -1.75 L 8.765625 -1.71875 L 8.921875 -0.203125 C 8.796875 -0.128906 8.625 -0.0664062 8.40625 -0.015625 C 8.195312 0.0351562 7.96875 0.0625 7.71875 0.0625 C 7.195312 0.0625 6.789062 -0.0351562 6.5 -0.234375 C 6.21875 -0.429688 6.015625 -0.742188 5.890625 -1.171875 L 5.71875 -1.1875 C 5.300781 -0.28125 4.515625 0.171875 3.359375 0.171875 Z M 4.046875 -1.453125 C 4.546875 -1.453125 4.945312 -1.617188 5.25 -1.953125 C 5.550781 -2.296875 5.703125 -2.765625 5.703125 -3.359375 L 5.703125 -4.234375 L 5.546875 -4.265625 C 5.421875 -4.160156 5.25 -4.070312 5.03125 -4 C 4.820312 -3.9375 4.519531 -3.867188 4.125 -3.796875 C 3.65625 -3.722656 3.316406 -3.585938 3.109375 -3.390625 C 2.910156 -3.203125 2.8125 -2.9375 2.8125 -2.59375 C 2.8125 -2.21875 2.921875 -1.929688 3.140625 -1.734375 C 3.359375 -1.546875 3.660156 -1.453125 4.046875 -1.453125 Z M 4.046875 -1.453125 "/></g></g></g><g fill="#545454" fill-opacity="1"><g transform="translate(44.9564, 16.924242)"><g><path d="M 4.46875 3.65625 C 3.050781 3.65625 2.003906 3.445312 1.328125 3.03125 C 0.648438 2.613281 0.3125 2.035156 0.3125 1.296875 C 0.3125 0.835938 0.453125 0.460938 0.734375 0.171875 C 1.023438 -0.117188 1.441406 -0.3125 1.984375 -0.40625 L 1.984375 -0.578125 C 1.691406 -0.753906 1.484375 -0.945312 1.359375 -1.15625 C 1.234375 -1.375 1.171875 -1.628906 1.171875 -1.921875 C 1.171875 -2.609375 1.617188 -3.070312 2.515625 -3.3125 L 2.515625 -3.484375 C 2.054688 -3.742188 1.707031 -4.070312 1.46875 -4.46875 C 1.238281 -4.863281 1.125 -5.335938 1.125 -5.890625 C 1.125 -6.460938 1.253906 -6.96875 1.515625 -7.40625 C 1.773438 -7.84375 2.160156 -8.179688 2.671875 -8.421875 C 3.179688 -8.660156 3.789062 -8.78125 4.5 -8.78125 C 5.21875 -8.78125 5.789062 -8.65625 6.21875 -8.40625 C 6.476562 -8.789062 6.628906 -9.238281 6.671875 -9.75 L 6.84375 -9.84375 L 8.390625 -9.46875 C 8.347656 -9.050781 8.226562 -8.703125 8.03125 -8.421875 C 7.84375 -8.148438 7.546875 -7.90625 7.140625 -7.6875 L 7.140625 -7.515625 C 7.617188 -7.085938 7.859375 -6.488281 7.859375 -5.71875 C 7.859375 -5.1875 7.722656 -4.707031 7.453125 -4.28125 C 7.191406 -3.863281 6.804688 -3.53125 6.296875 -3.28125 C 5.796875 -3.039062 5.195312 -2.921875 4.5 -2.921875 L 4.171875 -2.9375 C 3.960938 -2.945312 3.816406 -2.953125 3.734375 -2.953125 C 3.535156 -2.953125 3.378906 -2.894531 3.265625 -2.78125 C 3.148438 -2.675781 3.09375 -2.539062 3.09375 -2.375 C 3.09375 -2.195312 3.164062 -2.054688 3.3125 -1.953125 C 3.457031 -1.847656 3.671875 -1.789062 3.953125 -1.78125 L 5.890625 -1.71875 C 7.796875 -1.65625 8.75 -0.832031 8.75 0.75 C 8.75 1.3125 8.601562 1.804688 8.3125 2.234375 C 8.03125 2.671875 7.570312 3.015625 6.9375 3.265625 C 6.300781 3.523438 5.476562 3.65625 4.46875 3.65625 Z M 4.5 -4.4375 C 4.914062 -4.4375 5.238281 -4.554688 5.46875 -4.796875 C 5.707031 -5.046875 5.828125 -5.398438 5.828125 -5.859375 C 5.828125 -6.304688 5.707031 -6.648438 5.46875 -6.890625 C 5.238281 -7.140625 4.914062 -7.265625 4.5 -7.265625 C 4.070312 -7.265625 3.742188 -7.140625 3.515625 -6.890625 C 3.285156 -6.648438 3.171875 -6.304688 3.171875 -5.859375 C 3.171875 -5.398438 3.285156 -5.046875 3.515625 -4.796875 C 3.742188 -4.554688 4.070312 -4.4375 4.5 -4.4375 Z M 4.46875 2.09375 C 5.207031 2.09375 5.742188 1.988281 6.078125 1.78125 C 6.421875 1.570312 6.59375 1.300781 6.59375 0.96875 C 6.59375 0.695312 6.503906 0.492188 6.328125 0.359375 C 6.160156 0.234375 5.890625 0.164062 5.515625 0.15625 L 3.8125 0.078125 C 3.75 0.078125 3.691406 0.0703125 3.640625 0.0625 C 3.597656 0.0625 3.550781 0.0625 3.5 0.0625 C 3.132812 0.0625 2.859375 0.140625 2.671875 0.296875 C 2.484375 0.453125 2.390625 0.671875 2.390625 0.953125 C 2.390625 1.316406 2.5625 1.597656 2.90625 1.796875 C 3.257812 1.992188 3.78125 2.09375 4.46875 2.09375 Z M 4.46875 2.09375 "/></g></g></g><g fill="#545454" fill-opacity="1"><g transform="translate(54.363151, 16.924242)"><g><path d="M 8.515625 -3.828125 L 2.984375 -3.828125 C 3.046875 -3.078125 3.257812 -2.53125 3.625 -2.1875 C 3.988281 -1.84375 4.484375 -1.671875 5.109375 -1.671875 C 5.609375 -1.671875 6.007812 -1.765625 6.3125 -1.953125 C 6.625 -2.140625 6.875 -2.421875 7.0625 -2.796875 L 7.21875 -2.796875 L 8.65625 -1.875 C 8.375 -1.269531 7.945312 -0.773438 7.375 -0.390625 C 6.8125 -0.015625 6.054688 0.171875 5.109375 0.171875 C 4.222656 0.171875 3.453125 0 2.796875 -0.34375 C 2.148438 -0.6875 1.648438 -1.191406 1.296875 -1.859375 C 0.953125 -2.523438 0.78125 -3.34375 0.78125 -4.3125 C 0.78125 -5.289062 0.960938 -6.113281 1.328125 -6.78125 C 1.703125 -7.457031 2.203125 -7.957031 2.828125 -8.28125 C 3.460938 -8.613281 4.171875 -8.78125 4.953125 -8.78125 C 6.171875 -8.78125 7.101562 -8.457031 7.75 -7.8125 C 8.40625 -7.164062 8.734375 -6.21875 8.734375 -4.96875 C 8.734375 -4.519531 8.71875 -4.171875 8.6875 -3.921875 Z M 6.65625 -5.21875 C 6.632812 -5.875 6.484375 -6.351562 6.203125 -6.65625 C 5.921875 -6.957031 5.503906 -7.109375 4.953125 -7.109375 C 3.859375 -7.109375 3.21875 -6.476562 3.03125 -5.21875 Z M 6.65625 -5.21875 "/></g></g></g><g fill="#545454" fill-opacity="1"><g transform="translate(64.176053, 16.924242)"><g><path d="M 1.25 0 L 1.25 -8.625 L 3.328125 -8.625 L 3.328125 -7.46875 L 3.484375 -7.4375 C 3.765625 -7.894531 4.09375 -8.234375 4.46875 -8.453125 C 4.851562 -8.671875 5.335938 -8.78125 5.921875 -8.78125 C 6.578125 -8.78125 7.101562 -8.648438 7.5 -8.390625 C 7.894531 -8.140625 8.179688 -7.765625 8.359375 -7.265625 L 8.53125 -7.265625 C 8.789062 -7.785156 9.128906 -8.164062 9.546875 -8.40625 C 9.972656 -8.65625 10.5 -8.78125 11.125 -8.78125 C 12.90625 -8.78125 13.796875 -7.785156 13.796875 -5.796875 L 13.796875 0 L 11.640625 0 L 11.640625 -5.53125 C 11.640625 -6.03125 11.539062 -6.390625 11.34375 -6.609375 C 11.144531 -6.835938 10.828125 -6.953125 10.390625 -6.953125 C 9.203125 -6.953125 8.609375 -6.160156 8.609375 -4.578125 L 8.609375 0 L 6.4375 0 L 6.4375 -5.53125 C 6.4375 -6.03125 6.335938 -6.390625 6.140625 -6.609375 C 5.941406 -6.835938 5.625 -6.953125 5.1875 -6.953125 C 4.625 -6.953125 4.1875 -6.765625 3.875 -6.390625 C 3.5625 -6.023438 3.40625 -5.4375 3.40625 -4.625 L 3.40625 0 Z M 1.25 0 "/></g></g></g><g fill="#545454" fill-opacity="1"><g transform="translate(79.526658, 16.924242)"><g><path d="M 8.515625 -3.828125 L 2.984375 -3.828125 C 3.046875 -3.078125 3.257812 -2.53125 3.625 -2.1875 C 3.988281 -1.84375 4.484375 -1.671875 5.109375 -1.671875 C 5.609375 -1.671875 6.007812 -1.765625 6.3125 -1.953125 C 6.625 -2.140625 6.875 -2.421875 7.0625 -2.796875 L 7.21875 -2.796875 L 8.65625 -1.875 C 8.375 -1.269531 7.945312 -0.773438 7.375 -0.390625 C 6.8125 -0.015625 6.054688 0.171875 5.109375 0.171875 C 4.222656 0.171875 3.453125 0 2.796875 -0.34375 C 2.148438 -0.6875 1.648438 -1.191406 1.296875 -1.859375 C 0.953125 -2.523438 0.78125 -3.34375 0.78125 -4.3125 C 0.78125 -5.289062 0.960938 -6.113281 1.328125 -6.78125 C 1.703125 -7.457031 2.203125 -7.957031 2.828125 -8.28125 C 3.460938 -8.613281 4.171875 -8.78125 4.953125 -8.78125 C 6.171875 -8.78125 7.101562 -8.457031 7.75 -7.8125 C 8.40625 -7.164062 8.734375 -6.21875 8.734375 -4.96875 C 8.734375 -4.519531 8.71875 -4.171875 8.6875 -3.921875 Z M 6.65625 -5.21875 C 6.632812 -5.875 6.484375 -6.351562 6.203125 -6.65625 C 5.921875 -6.957031 5.503906 -7.109375 4.953125 -7.109375 C 3.859375 -7.109375 3.21875 -6.476562 3.03125 -5.21875 Z M 6.65625 -5.21875 "/></g></g></g><g fill="#545454" fill-opacity="1"><g transform="translate(89.33956, 16.924242)"><g><path d="M 1.25 0 L 1.25 -8.625 L 3.328125 -8.625 L 3.328125 -7.359375 L 3.484375 -7.3125 C 4.023438 -8.289062 4.894531 -8.78125 6.09375 -8.78125 C 7.09375 -8.78125 7.820312 -8.507812 8.28125 -7.96875 C 8.75 -7.425781 8.984375 -6.640625 8.984375 -5.609375 L 8.984375 0 L 6.828125 0 L 6.828125 -5.34375 C 6.828125 -5.914062 6.710938 -6.328125 6.484375 -6.578125 C 6.253906 -6.828125 5.882812 -6.953125 5.375 -6.953125 C 4.757812 -6.953125 4.273438 -6.75 3.921875 -6.34375 C 3.578125 -5.945312 3.40625 -5.320312 3.40625 -4.46875 L 3.40625 0 Z M 1.25 0 "/></g></g></g><g fill="#545454" fill-opacity="1"><g transform="translate(99.878841, 16.924242)"><g><path d="M 5.953125 -2.0625 L 6.515625 -0.453125 C 6.273438 -0.265625 5.976562 -0.113281 5.625 0 C 5.269531 0.113281 4.867188 0.171875 4.421875 0.171875 C 3.492188 0.171875 2.785156 -0.0820312 2.296875 -0.59375 C 1.816406 -1.101562 1.578125 -1.84375 1.578125 -2.8125 L 1.578125 -6.90625 L 0.265625 -6.90625 L 0.265625 -8.625 L 1.578125 -8.625 L 1.578125 -10.3125 L 3.734375 -10.65625 L 3.734375 -8.625 L 6.1875 -8.625 L 6.1875 -6.90625 L 3.734375 -6.90625 L 3.734375 -2.96875 C 3.734375 -2.539062 3.820312 -2.226562 4 -2.03125 C 4.175781 -1.84375 4.4375 -1.75 4.78125 -1.75 C 5.164062 -1.75 5.5 -1.851562 5.78125 -2.0625 Z M 5.953125 -2.0625 "/></g></g></g><g fill="#545454" fill-opacity="1"><g transform="translate(107.020515, 16.924242)"><g/></g></g><g fill="#545454" fill-opacity="1"><g transform="translate(111.241027, 16.924242)"><g><path d="M 5.90625 -11.421875 C 6.71875 -11.421875 7.414062 -11.269531 8 -10.96875 C 8.582031 -10.675781 9.019531 -10.257812 9.3125 -9.71875 C 9.613281 -9.175781 9.765625 -8.550781 9.765625 -7.84375 C 9.765625 -7.125 9.613281 -6.492188 9.3125 -5.953125 C 9.019531 -5.421875 8.582031 -5.003906 8 -4.703125 C 7.414062 -4.410156 6.71875 -4.265625 5.90625 -4.265625 L 3.75 -4.265625 L 3.75 0 L 1.484375 0 L 1.484375 -11.421875 Z M 5.609375 -6.046875 C 6.859375 -6.046875 7.484375 -6.644531 7.484375 -7.84375 C 7.484375 -9.039062 6.859375 -9.640625 5.609375 -9.640625 L 3.75 -9.640625 L 3.75 -6.046875 Z M 5.609375 -6.046875 "/></g></g></g><g fill="#545454" fill-opacity="1"><g transform="translate(122.123968, 16.924242)"><g><path d="M 5.015625 0.171875 C 4.171875 0.171875 3.425781 0 2.78125 -0.34375 C 2.144531 -0.695312 1.648438 -1.207031 1.296875 -1.875 C 0.953125 -2.550781 0.78125 -3.363281 0.78125 -4.3125 C 0.78125 -5.257812 0.953125 -6.066406 1.296875 -6.734375 C 1.648438 -7.410156 2.144531 -7.921875 2.78125 -8.265625 C 3.425781 -8.609375 4.171875 -8.78125 5.015625 -8.78125 C 5.859375 -8.78125 6.597656 -8.609375 7.234375 -8.265625 C 7.867188 -7.921875 8.363281 -7.410156 8.71875 -6.734375 C 9.070312 -6.066406 9.25 -5.257812 9.25 -4.3125 C 9.25 -3.363281 9.070312 -2.550781 8.71875 -1.875 C 8.363281 -1.207031 7.867188 -0.695312 7.234375 -0.34375 C 6.597656 0 5.859375 0.171875 5.015625 0.171875 Z M 5.015625 -1.671875 C 6.347656 -1.671875 7.015625 -2.550781 7.015625 -4.3125 C 7.015625 -5.21875 6.84375 -5.882812 6.5 -6.3125 C 6.15625 -6.738281 5.660156 -6.953125 5.015625 -6.953125 C 3.671875 -6.953125 3 -6.070312 3 -4.3125 C 3 -2.550781 3.671875 -1.671875 5.015625 -1.671875 Z M 5.015625 -1.671875 "/></g></g></g><g fill="#545454" fill-opacity="1"><g transform="translate(132.585137, 16.924242)"><g><path d="M 1.25 0 L 1.25 -8.625 L 3.34375 -8.625 L 3.34375 -7.34375 L 3.515625 -7.3125 C 3.722656 -7.789062 3.992188 -8.140625 4.328125 -8.359375 C 4.671875 -8.585938 5.082031 -8.703125 5.5625 -8.703125 C 6.050781 -8.703125 6.425781 -8.617188 6.6875 -8.453125 L 6.3125 -6.578125 L 6.15625 -6.546875 C 6.007812 -6.609375 5.867188 -6.648438 5.734375 -6.671875 C 5.609375 -6.703125 5.453125 -6.71875 5.265625 -6.71875 C 4.660156 -6.71875 4.195312 -6.503906 3.875 -6.078125 C 3.5625 -5.648438 3.40625 -4.96875 3.40625 -4.03125 L 3.40625 0 Z M 1.25 0 "/></g></g></g><g fill="#545454" fill-opacity="1"><g transform="translate(139.789295, 16.924242)"><g><path d="M 5.953125 -2.0625 L 6.515625 -0.453125 C 6.273438 -0.265625 5.976562 -0.113281 5.625 0 C 5.269531 0.113281 4.867188 0.171875 4.421875 0.171875 C 3.492188 0.171875 2.785156 -0.0820312 2.296875 -0.59375 C 1.816406 -1.101562 1.578125 -1.84375 1.578125 -2.8125 L 1.578125 -6.90625 L 0.265625 -6.90625 L 0.265625 -8.625 L 1.578125 -8.625 L 1.578125 -10.3125 L 3.734375 -10.65625 L 3.734375 -8.625 L 6.1875 -8.625 L 6.1875 -6.90625 L 3.734375 -6.90625 L 3.734375 -2.96875 C 3.734375 -2.539062 3.820312 -2.226562 4 -2.03125 C 4.175781 -1.84375 4.4375 -1.75 4.78125 -1.75 C 5.164062 -1.75 5.5 -1.851562 5.78125 -2.0625 Z M 5.953125 -2.0625 "/></g></g></g><g fill="#545454" fill-opacity="1"><g transform="translate(146.930969, 16.924242)"><g><path d="M 3.359375 0.171875 C 2.804688 0.171875 2.328125 0.0664062 1.921875 -0.140625 C 1.515625 -0.347656 1.203125 -0.644531 0.984375 -1.03125 C 0.765625 -1.425781 0.65625 -1.898438 0.65625 -2.453125 C 0.65625 -2.960938 0.765625 -3.390625 0.984375 -3.734375 C 1.203125 -4.085938 1.539062 -4.375 2 -4.59375 C 2.457031 -4.8125 3.054688 -4.984375 3.796875 -5.109375 C 4.316406 -5.191406 4.707031 -5.28125 4.96875 -5.375 C 5.238281 -5.476562 5.421875 -5.59375 5.515625 -5.71875 C 5.609375 -5.84375 5.65625 -6 5.65625 -6.1875 C 5.65625 -6.46875 5.554688 -6.679688 5.359375 -6.828125 C 5.171875 -6.972656 4.851562 -7.046875 4.40625 -7.046875 C 3.925781 -7.046875 3.46875 -6.9375 3.03125 -6.71875 C 2.601562 -6.507812 2.234375 -6.226562 1.921875 -5.875 L 1.765625 -5.875 L 0.859375 -7.25 C 1.296875 -7.726562 1.828125 -8.101562 2.453125 -8.375 C 3.085938 -8.644531 3.773438 -8.78125 4.515625 -8.78125 C 5.660156 -8.78125 6.488281 -8.535156 7 -8.046875 C 7.507812 -7.566406 7.765625 -6.882812 7.765625 -6 L 7.765625 -2.25 C 7.765625 -1.863281 7.929688 -1.671875 8.265625 -1.671875 C 8.398438 -1.671875 8.53125 -1.695312 8.65625 -1.75 L 8.765625 -1.71875 L 8.921875 -0.203125 C 8.796875 -0.128906 8.625 -0.0664062 8.40625 -0.015625 C 8.195312 0.0351562 7.96875 0.0625 7.71875 0.0625 C 7.195312 0.0625 6.789062 -0.0351562 6.5 -0.234375 C 6.21875 -0.429688 6.015625 -0.742188 5.890625 -1.171875 L 5.71875 -1.1875 C 5.300781 -0.28125 4.515625 0.171875 3.359375 0.171875 Z M 4.046875 -1.453125 C 4.546875 -1.453125 4.945312 -1.617188 5.25 -1.953125 C 5.550781 -2.296875 5.703125 -2.765625 5.703125 -3.359375 L 5.703125 -4.234375 L 5.546875 -4.265625 C 5.421875 -4.160156 5.25 -4.070312 5.03125 -4 C 4.820312 -3.9375 4.519531 -3.867188 4.125 -3.796875 C 3.65625 -3.722656 3.316406 -3.585938 3.109375 -3.390625 C 2.910156 -3.203125 2.8125 -2.9375 2.8125 -2.59375 C 2.8125 -2.21875 2.921875 -1.929688 3.140625 -1.734375 C 3.359375 -1.546875 3.660156 -1.453125 4.046875 -1.453125 Z M 4.046875 -1.453125 "/></g></g></g><g fill="#545454" fill-opacity="1"><g transform="translate(156.462684, 16.924242)"><g><path d="M 3.578125 0.171875 C 2.804688 0.171875 2.210938 -0.0351562 1.796875 -0.453125 C 1.390625 -0.878906 1.1875 -1.519531 1.1875 -2.375 L 1.1875 -12.078125 L 3.359375 -12.078125 L 3.359375 -2.46875 C 3.359375 -1.9375 3.578125 -1.671875 4.015625 -1.671875 C 4.140625 -1.671875 4.269531 -1.691406 4.40625 -1.734375 L 4.515625 -1.703125 L 4.71875 -0.046875 C 4.59375 0.0234375 4.429688 0.078125 4.234375 0.109375 C 4.035156 0.148438 3.816406 0.171875 3.578125 0.171875 Z M 3.578125 0.171875 "/></g></g></g></g></g></g></svg>