<svg xmlns="http://www.w3.org/2000/svg" xmlns:xlink="http://www.w3.org/1999/xlink" width="120" zoomAndPan="magnify" viewBox="0 0 90 96.749999" height="129" preserveAspectRatio="xMidYMid meet" version="1.0"><defs><clipPath id="454c25beb9"><path d="M 0.117188 0 L 89.152344 0 L 89.152344 89.035156 L 0.117188 89.035156 Z M 0.117188 0 " clip-rule="nonzero"/></clipPath><clipPath id="548cb637d4"><path d="M 57.585938 0 L 31.679688 0 C 29.613281 0 27.941406 1.675781 27.941406 3.742188 L 27.941406 24.082031 C 27.941406 26.148438 26.265625 27.824219 24.199219 27.824219 L 3.855469 27.824219 C 1.789062 27.824219 0.117188 29.5 0.117188 31.5625 L 0.117188 57.472656 C 0.117188 59.539062 1.789062 61.210938 3.855469 61.210938 L 24.199219 61.210938 C 26.265625 61.210938 27.941406 62.886719 27.941406 64.953125 L 27.941406 85.296875 C 27.941406 87.359375 29.613281 89.035156 31.679688 89.035156 L 57.585938 89.035156 C 59.652344 89.035156 61.328125 87.359375 61.328125 85.296875 L 61.328125 64.953125 C 61.328125 62.886719 63.003906 61.210938 65.070312 61.210938 L 85.410156 61.210938 C 87.476562 61.210938 89.152344 59.539062 89.152344 57.472656 L 89.152344 31.5625 C 89.152344 29.5 87.476562 27.824219 85.410156 27.824219 L 65.070312 27.824219 C 63.003906 27.824219 61.328125 26.148438 61.328125 24.082031 L 61.328125 3.742188 C 61.328125 1.675781 59.652344 0 57.585938 0 Z M 57.585938 0 " clip-rule="nonzero"/></clipPath><clipPath id="f40b1827de"><path d="M 67.132812 5.21875 L 82.898438 5.21875 L 82.898438 20.984375 L 67.132812 20.984375 Z M 67.132812 5.21875 " clip-rule="nonzero"/></clipPath><clipPath id="206aa1f376"><path d="M 76.476562 5.21875 L 73.554688 5.21875 C 72.730469 5.21875 72.058594 5.886719 72.058594 6.714844 L 72.058594 8.648438 C 72.058594 9.476562 71.390625 10.144531 70.5625 10.144531 L 68.628906 10.144531 C 67.804688 10.144531 67.132812 10.816406 67.132812 11.640625 L 67.132812 14.5625 C 67.132812 15.386719 67.804688 16.058594 68.628906 16.058594 L 70.5625 16.058594 C 71.390625 16.058594 72.058594 16.726562 72.058594 17.554688 L 72.058594 19.488281 C 72.058594 20.3125 72.730469 20.984375 73.554688 20.984375 L 76.476562 20.984375 C 77.300781 20.984375 77.972656 20.3125 77.972656 19.488281 L 77.972656 17.554688 C 77.972656 16.726562 78.640625 16.058594 79.46875 16.058594 L 81.402344 16.058594 C 82.230469 16.058594 82.898438 15.386719 82.898438 14.5625 L 82.898438 11.640625 C 82.898438 10.816406 82.230469 10.144531 81.402344 10.144531 L 79.46875 10.144531 C 78.640625 10.144531 77.972656 9.476562 77.972656 8.648438 L 77.972656 6.714844 C 77.972656 5.886719 77.300781 5.21875 76.476562 5.21875 Z M 76.476562 5.21875 " clip-rule="nonzero"/></clipPath><clipPath id="26465647fe"><path d="M 12 25 L 48 25 L 48 76 L 12 76 Z M 12 25 " clip-rule="nonzero"/></clipPath><clipPath id="740aa32fb1"><path d="M 28.222656 20.984375 L 51.402344 29.476562 L 33.136719 79.347656 L 9.957031 70.859375 Z M 28.222656 20.984375 " clip-rule="nonzero"/></clipPath><clipPath id="94204474a6"><path d="M 28.222656 20.984375 L 51.402344 29.476562 L 33.136719 79.347656 L 9.957031 70.859375 Z M 28.222656 20.984375 " clip-rule="nonzero"/></clipPath><clipPath id="e1677175c9"><path d="M 41 45 L 77 45 L 77 93 L 41 93 Z M 41 45 " clip-rule="nonzero"/></clipPath><clipPath id="6f749909b9"><path d="M 37.636719 49.417969 L 59.707031 40.148438 L 79.117188 86.355469 L 57.046875 95.625 Z M 37.636719 49.417969 " clip-rule="nonzero"/></clipPath><clipPath id="f0c0617e11"><path d="M 59.492188 40.238281 L 37.421875 49.507812 L 56.832031 95.71875 L 78.902344 86.449219 Z M 59.492188 40.238281 " clip-rule="nonzero"/></clipPath></defs><g clip-path="url(#454c25beb9)"><g clip-path="url(#548cb637d4)"><path fill="#ad2121" d="M 0.117188 0 L 89.152344 0 L 89.152344 89.035156 L 0.117188 89.035156 Z M 0.117188 0 " fill-opacity="1" fill-rule="nonzero"/></g></g><g clip-path="url(#f40b1827de)"><g clip-path="url(#206aa1f376)"><path fill="#ad2121" d="M 67.132812 5.21875 L 82.898438 5.21875 L 82.898438 20.984375 L 67.132812 20.984375 Z M 67.132812 5.21875 " fill-opacity="1" fill-rule="nonzero"/></g></g><g clip-path="url(#26465647fe)"><g clip-path="url(#740aa32fb1)"><g clip-path="url(#94204474a6)"><path fill="#ffffff" d="M 12.363281 71.167969 C 14.835938 67.933594 16.519531 64.195312 18.78125 60.824219 C 20.722656 57.53125 22.773438 54.226562 23.96875 50.574219 C 24.691406 47.355469 23.960938 43.957031 25.070312 40.800781 C 25.324219 38.957031 26.167969 37.050781 25.679688 35.199219 C 24.507812 34.140625 24.304688 31.765625 26.464844 32.503906 C 28.390625 32.679688 28.628906 36.175781 29.363281 36.300781 C 30.554688 33.75 31.695312 31.085938 33.804688 29.140625 C 35.023438 28.03125 35.992188 25.644531 37.929688 25.976562 C 40 27.101562 37.636719 29.308594 36.898438 30.59375 C 36.210938 31.898438 34.007812 33.769531 34.527344 34.886719 C 36.585938 32.382812 39.113281 30.242188 41.699219 28.277344 C 43.625 26.632812 45.351562 29.738281 43.226562 30.835938 C 41.171875 32.953125 38.859375 34.859375 37.277344 37.382812 C 36.304688 38.296875 36.953125 38.929688 37.746094 37.757812 C 39.539062 35.742188 41.667969 34.074219 43.554688 32.152344 C 44.898438 29.976562 47.402344 32.816406 45.371094 34.15625 C 43.8125 35.960938 42.015625 37.546875 40.453125 39.34375 C 39.925781 40.09375 37.632812 43.035156 39.898438 41.835938 C 42.027344 40.632812 43.878906 39.035156 45.703125 37.425781 C 47.988281 36.074219 47.925781 39.433594 46.277344 40.234375 C 44.457031 42.296875 42.398438 44.136719 40.339844 45.949219 C 38.148438 48.972656 36.667969 52.582031 33.734375 55.023438 C 32.019531 56.039062 31.351562 57.898438 30.734375 59.695312 C 28.757812 65.082031 26.890625 70.511719 24.976562 75.921875 C 20.773438 74.335938 16.488281 72.9375 12.363281 71.167969 Z M 12.363281 71.167969 " fill-opacity="1" fill-rule="nonzero"/></g></g></g><g clip-path="url(#e1677175c9)"><g clip-path="url(#6f749909b9)"><g clip-path="url(#f0c0617e11)"><path fill="#ffffff" d="M 76.8125 87.3125 C 74.316406 84.339844 72.546875 80.859375 70.242188 77.75 C 68.25 74.699219 66.148438 71.644531 64.847656 68.222656 C 64.019531 65.1875 64.566406 61.921875 63.367188 58.964844 C 63.042969 57.21875 62.15625 55.445312 62.539062 53.660156 C 63.609375 52.597656 63.699219 50.328125 61.675781 51.128906 C 59.847656 51.378906 59.777344 54.71875 59.082031 54.871094 C 57.832031 52.496094 56.632812 50.011719 54.535156 48.25 C 53.324219 47.25 52.296875 45.019531 50.46875 45.421875 C 48.546875 46.585938 50.894531 48.582031 51.65625 49.773438 C 52.367188 50.984375 54.546875 52.667969 54.101562 53.753906 C 52.03125 51.460938 49.53125 49.535156 46.980469 47.78125 C 45.074219 46.300781 43.566406 49.332031 45.640625 50.285156 C 47.691406 52.207031 49.980469 53.917969 51.59375 56.253906 C 52.5625 57.078125 51.972656 57.710938 51.164062 56.632812 C 49.367188 54.792969 47.269531 53.296875 45.386719 51.550781 C 44.011719 49.539062 41.753906 52.355469 43.746094 53.539062 C 45.3125 55.191406 47.089844 56.621094 48.660156 58.257812 C 49.195312 58.953125 51.507812 61.652344 49.296875 60.605469 C 47.214844 59.558594 45.382812 58.117188 43.578125 56.664062 C 41.339844 55.480469 41.546875 58.675781 43.152344 59.367188 C 44.980469 61.246094 47.019531 62.90625 49.0625 64.542969 C 51.28125 67.328125 52.847656 70.695312 55.75 72.890625 C 57.429688 73.777344 58.144531 75.523438 58.8125 77.203125 C 60.933594 82.246094 62.953125 87.332031 65.015625 92.398438 C 68.945312 90.699219 72.964844 89.179688 76.8125 87.3125 Z M 76.8125 87.3125 " fill-opacity="1" fill-rule="nonzero"/></g></g></g></svg>